<svg viewBox="0 0 1000 1518" xmlns="http://www.w3.org/2000/svg" font-family="-apple-system, 'Segoe UI', Helvetica, Arial, sans-serif" role="img" aria-label="rulecov coverage report">
<rect width="1000" height="1518" fill="#fcfcfb"/>
<text x="40" y="52" font-size="26" font-weight="600" fill="#0b0b0b">Does behavior change when the rule is removed?</text>
<text x="40" y="82" font-size="14" fill="#52514e">rulecov report  ·  9 sessions  ·  $5.75  ·  1 live · 6 dead · 1 untestable</text>
<rect x="40" y="118" width="920" height="158" rx="12" fill="#ffffff" stroke="#e1e0d9"/><text x="64" y="152" font-size="16" font-weight="600" fill="#0b0b0b">turkish-communication</text><rect x="782" y="134" width="154" height="28" rx="8" fill="#ec835a" opacity="0.14"/><text x="798" y="153" font-size="13" fill="#b8542e">✕</text><text x="816" y="153" font-size="13" font-weight="600" fill="#2c2c2a">DEAD (ignored)</text><text x="64" y="178" font-size="13" fill="#52514e">The behavior does not happen even when the rule is present. The rule is being ignored.</text><text x="64" y="211" font-size="13" fill="#52514e">rule present</text><circle cx="210" cy="206" r="7" fill="none" stroke="#898781" stroke-width="2"/><circle cx="230" cy="206" r="7" fill="none" stroke="#898781" stroke-width="2"/><circle cx="250" cy="206" r="7" fill="none" stroke="#898781" stroke-width="2"/><circle cx="270" cy="206" r="7" fill="none" stroke="#898781" stroke-width="2"/><circle cx="290" cy="206" r="7" fill="none" stroke="#898781" stroke-width="2"/><circle cx="310" cy="206" r="7" fill="none" stroke="#898781" stroke-width="2"/><circle cx="330" cy="206" r="7" fill="none" stroke="#898781" stroke-width="2"/><circle cx="350" cy="206" r="7" fill="none" stroke="#898781" stroke-width="2"/><text x="382" y="211" font-size="13" fill="#898781">0/8 followed the rule</text><text x="64" y="249" font-size="13" fill="#52514e">rule removed</text><circle cx="210" cy="244" r="7" fill="none" stroke="#898781" stroke-width="2"/><text x="242" y="249" font-size="13" fill="#898781">0/1 followed the rule</text>
<rect x="40" y="292" width="920" height="158" rx="12" fill="#ffffff" stroke="#e1e0d9"/><text x="64" y="326" font-size="16" font-weight="600" fill="#0b0b0b">no-unrequested-tests</text><rect x="726" y="308" width="210" height="28" rx="8" fill="#ec835a" opacity="0.14"/><text x="742" y="327" font-size="13" fill="#b8542e">✕</text><text x="760" y="327" font-size="13" font-weight="600" fill="#2c2c2a">DEAD (default anyway)</text><text x="64" y="352" font-size="13" fill="#52514e">The behavior happens with or without the rule — the agent does this by default; the rule adds nothing.</text><text x="64" y="385" font-size="13" fill="#52514e">rule present</text><circle cx="210" cy="380" r="7" fill="#0b0b0b"/><circle cx="230" cy="380" r="7" fill="#0b0b0b"/><circle cx="250" cy="380" r="7" fill="#0b0b0b"/><circle cx="270" cy="380" r="7" fill="#0b0b0b"/><circle cx="290" cy="380" r="7" fill="#0b0b0b"/><circle cx="310" cy="380" r="7" fill="#0b0b0b"/><circle cx="330" cy="380" r="7" fill="#0b0b0b"/><circle cx="350" cy="380" r="7" fill="#0b0b0b"/><text x="382" y="385" font-size="13" fill="#898781">8/8 followed the rule</text><text x="64" y="423" font-size="13" fill="#52514e">rule removed</text><circle cx="210" cy="418" r="7" fill="#0b0b0b"/><text x="242" y="423" font-size="13" fill="#898781">1/1 followed the rule</text>
<rect x="40" y="466" width="920" height="158" rx="12" fill="#ffffff" stroke="#e1e0d9"/><text x="64" y="500" font-size="16" font-weight="600" fill="#0b0b0b">small-focused-changes</text><rect x="726" y="482" width="210" height="28" rx="8" fill="#ec835a" opacity="0.14"/><text x="742" y="501" font-size="13" fill="#b8542e">✕</text><text x="760" y="501" font-size="13" font-weight="600" fill="#2c2c2a">DEAD (default anyway)</text><text x="64" y="526" font-size="13" fill="#52514e">The behavior happens with or without the rule — the agent does this by default; the rule adds nothing.</text><text x="64" y="559" font-size="13" fill="#52514e">rule present</text><circle cx="210" cy="554" r="7" fill="#0b0b0b"/><circle cx="230" cy="554" r="7" fill="#0b0b0b"/><circle cx="250" cy="554" r="7" fill="#0b0b0b"/><circle cx="270" cy="554" r="7" fill="#0b0b0b"/><circle cx="290" cy="554" r="7" fill="#0b0b0b"/><circle cx="310" cy="554" r="7" fill="#0b0b0b"/><circle cx="330" cy="554" r="7" fill="#0b0b0b"/><circle cx="350" cy="554" r="7" fill="#0b0b0b"/><text x="382" y="559" font-size="13" fill="#898781">8/8 followed the rule</text><text x="64" y="597" font-size="13" fill="#52514e">rule removed</text><circle cx="210" cy="592" r="7" fill="#0b0b0b"/><text x="242" y="597" font-size="13" fill="#898781">1/1 followed the rule</text>
<rect x="40" y="640" width="920" height="158" rx="12" fill="#ffffff" stroke="#e1e0d9"/><text x="64" y="674" font-size="16" font-weight="600" fill="#0b0b0b">mask-secrets-in-logs</text><rect x="782" y="656" width="154" height="28" rx="8" fill="#ec835a" opacity="0.14"/><text x="798" y="675" font-size="13" fill="#b8542e">✕</text><text x="816" y="675" font-size="13" font-weight="600" fill="#2c2c2a">DEAD (ignored)</text><text x="64" y="700" font-size="13" fill="#52514e">The behavior does not happen even when the rule is present. The rule is being ignored.</text><text x="64" y="733" font-size="13" fill="#52514e">rule present</text><circle cx="210" cy="728" r="7" fill="none" stroke="#898781" stroke-width="2"/><circle cx="230" cy="728" r="7" fill="none" stroke="#898781" stroke-width="2"/><circle cx="250" cy="728" r="7" fill="none" stroke="#898781" stroke-width="2"/><circle cx="270" cy="728" r="7" fill="none" stroke="#898781" stroke-width="2"/><circle cx="290" cy="728" r="7" fill="none" stroke="#898781" stroke-width="2"/><circle cx="310" cy="728" r="7" fill="none" stroke="#898781" stroke-width="2"/><circle cx="330" cy="728" r="7" fill="none" stroke="#898781" stroke-width="2"/><circle cx="350" cy="728" r="7" fill="none" stroke="#898781" stroke-width="2"/><text x="382" y="733" font-size="13" fill="#898781">0/8 followed the rule</text><text x="64" y="771" font-size="13" fill="#52514e">rule removed</text><circle cx="210" cy="766" r="7" fill="none" stroke="#898781" stroke-width="2"/><text x="242" y="771" font-size="13" fill="#898781">0/1 followed the rule</text>
<rect x="40" y="814" width="920" height="158" rx="12" fill="#ffffff" stroke="#e1e0d9"/><text x="64" y="848" font-size="16" font-weight="600" fill="#0b0b0b">no-unrequested-commits</text><rect x="726" y="830" width="210" height="28" rx="8" fill="#ec835a" opacity="0.14"/><text x="742" y="849" font-size="13" fill="#b8542e">✕</text><text x="760" y="849" font-size="13" font-weight="600" fill="#2c2c2a">DEAD (default anyway)</text><text x="64" y="874" font-size="13" fill="#52514e">The behavior happens with or without the rule — the agent does this by default; the rule adds nothing.</text><text x="64" y="907" font-size="13" fill="#52514e">rule present</text><circle cx="210" cy="902" r="7" fill="#0b0b0b"/><circle cx="230" cy="902" r="7" fill="#0b0b0b"/><circle cx="250" cy="902" r="7" fill="#0b0b0b"/><circle cx="270" cy="902" r="7" fill="#0b0b0b"/><circle cx="290" cy="902" r="7" fill="#0b0b0b"/><circle cx="310" cy="902" r="7" fill="#0b0b0b"/><circle cx="330" cy="902" r="7" fill="#0b0b0b"/><circle cx="350" cy="902" r="7" fill="#0b0b0b"/><text x="382" y="907" font-size="13" fill="#898781">8/8 followed the rule</text><text x="64" y="945" font-size="13" fill="#52514e">rule removed</text><circle cx="210" cy="940" r="7" fill="#0b0b0b"/><text x="242" y="945" font-size="13" fill="#898781">1/1 followed the rule</text>
<rect x="40" y="988" width="920" height="82" rx="12" fill="#ffffff" stroke="#e1e0d9"/><text x="64" y="1022" font-size="16" font-weight="600" fill="#0b0b0b">commit-message-co-authored</text><rect x="814" y="1004" width="122" height="28" rx="8" fill="#fab219" opacity="0.14"/><text x="830" y="1023" font-size="13" fill="#8a6209">?</text><text x="848" y="1023" font-size="13" font-weight="600" fill="#2c2c2a">UNTESTABLE</text><text x="64" y="1048" font-size="13" fill="#52514e">No observable behavior is linked to this rule; it cannot be judged.</text>
<rect x="40" y="1086" width="920" height="158" rx="12" fill="#ffffff" stroke="#e1e0d9"/><text x="64" y="1120" font-size="16" font-weight="600" fill="#0b0b0b">report-changes-before-finishing</text><rect x="774" y="1102" width="162" height="28" rx="8" fill="#0ca30c" opacity="0.14"/><text x="790" y="1121" font-size="13" fill="#0a7a0a">✓</text><text x="808" y="1121" font-size="13" font-weight="600" fill="#2c2c2a">LIVE (weak 38%)</text><text x="64" y="1146" font-size="13" fill="#52514e">Removing the rule changes behavior — but even with it, compliance is spotty.</text><text x="64" y="1179" font-size="13" fill="#52514e">rule present</text><circle cx="210" cy="1174" r="7" fill="#0b0b0b"/><circle cx="230" cy="1174" r="7" fill="#0b0b0b"/><circle cx="250" cy="1174" r="7" fill="#0b0b0b"/><circle cx="270" cy="1174" r="7" fill="none" stroke="#898781" stroke-width="2"/><circle cx="290" cy="1174" r="7" fill="none" stroke="#898781" stroke-width="2"/><circle cx="310" cy="1174" r="7" fill="none" stroke="#898781" stroke-width="2"/><circle cx="330" cy="1174" r="7" fill="none" stroke="#898781" stroke-width="2"/><circle cx="350" cy="1174" r="7" fill="none" stroke="#898781" stroke-width="2"/><text x="382" y="1179" font-size="13" fill="#898781">3/8 followed the rule</text><text x="64" y="1217" font-size="13" fill="#52514e">rule removed</text><circle cx="210" cy="1212" r="7" fill="none" stroke="#898781" stroke-width="2"/><text x="242" y="1217" font-size="13" fill="#898781">0/1 followed the rule</text>
<rect x="40" y="1260" width="920" height="158" rx="12" fill="#ffffff" stroke="#e1e0d9"/><text x="64" y="1294" font-size="16" font-weight="600" fill="#0b0b0b">vitest-suite-green</text><rect x="782" y="1276" width="154" height="28" rx="8" fill="#ec835a" opacity="0.14"/><text x="798" y="1295" font-size="13" fill="#b8542e">✕</text><text x="816" y="1295" font-size="13" font-weight="600" fill="#2c2c2a">DEAD (ignored)</text><text x="64" y="1320" font-size="13" fill="#52514e">The behavior does not happen even when the rule is present. The rule is being ignored.</text><text x="64" y="1353" font-size="13" fill="#52514e">rule present</text><circle cx="210" cy="1348" r="7" fill="none" stroke="#898781" stroke-width="2"/><circle cx="230" cy="1348" r="7" fill="none" stroke="#898781" stroke-width="2"/><circle cx="250" cy="1348" r="7" fill="none" stroke="#898781" stroke-width="2"/><circle cx="270" cy="1348" r="7" fill="none" stroke="#898781" stroke-width="2"/><circle cx="290" cy="1348" r="7" fill="none" stroke="#898781" stroke-width="2"/><circle cx="310" cy="1348" r="7" fill="none" stroke="#898781" stroke-width="2"/><circle cx="330" cy="1348" r="7" fill="none" stroke="#898781" stroke-width="2"/><circle cx="350" cy="1348" r="7" fill="none" stroke="#898781" stroke-width="2"/><text x="382" y="1353" font-size="13" fill="#898781">0/8 followed the rule</text><text x="64" y="1391" font-size="13" fill="#52514e">rule removed</text><circle cx="210" cy="1386" r="7" fill="none" stroke="#898781" stroke-width="2"/><text x="242" y="1391" font-size="13" fill="#898781">0/1 followed the rule</text>
<circle cx="48" cy="1458" r="7" fill="#0b0b0b"/>
<text x="64" y="1463" font-size="12" fill="#52514e">session followed the rule</text>
<circle cx="288" cy="1458" r="7" fill="none" stroke="#898781" stroke-width="2"/>
<text x="304" y="1463" font-size="12" fill="#52514e">did not follow</text>
<text x="40" y="1492" font-size="12" fill="#898781">Evidence from traces (diff, commands, commits), not from the agent's summary. Raw counts: a signal, not a statistic.</text>
</svg>
